<?xml version="1.0" encoding="UTF-8" standalone="no"?>
<svg width="643px" height="253px" viewBox="0 0 643 253" version="1.1" xmlns="http://www.w3.org/2000/svg" xmlns:xlink="http://www.w3.org/1999/xlink" xmlns:sketch="http://www.bohemiancoding.com/sketch/ns">
    <!-- Generator: Sketch 3.5.2 (25235) - http://www.bohemiancoding.com/sketch -->
    <title>Group</title>
    <desc>Created with Sketch.</desc>
    <defs>
        <path id="path-1" d="M0,0.644 L642.817,0.644 L642.817,253 L0,253 L0,0.644 Z"></path>
        <path id="path-3" d="M0,0.644 L642.817,0.644 L642.817,253 L0,253 L0,0.644 Z"></path>
    </defs>
    <g id="Page-1" stroke="none" stroke-width="1" fill="none" fill-rule="evenodd" sketch:type="MSPage">
        <g id="Group" sketch:type="MSLayerGroup">
            <g id="Page-1">
                <path d="M38.791,200.1416 C33.389,200.1416 28.347,199.0056 23.658,196.7316 C18.969,194.4596 14.846,191.4026 11.296,187.5666 C7.743,183.7306 4.972,179.2206 2.984,174.0326 C0.993,168.8466 0,163.3416 0,157.5136 L0,131.7236 L30.691,131.7236 L30.691,157.5136 C30.691,160.7846 31.544,163.3746 33.249,165.2926 C34.954,167.2106 36.799,168.1706 38.791,168.1706 L46.677,168.1706 C48.522,168.1706 50.333,167.2106 52.112,165.2926 C53.887,163.3746 54.776,160.7846 54.776,157.5136 L54.776,53.2886 L85.255,53.2886 L85.255,157.5136 C85.255,163.3416 84.259,168.8466 82.271,174.0326 C80.279,179.2206 77.545,183.7306 74.065,187.5666 C70.582,191.4026 66.499,194.4596 61.81,196.7316 C57.121,199.0056 52.075,200.1416 46.677,200.1416 L38.791,200.1416 Z" id="Fill-1" fill="#03A8D5" sketch:type="MSShapeGroup"></path>
                <path d="M153.3501,88.0303 C151.5721,86.0423 149.7601,85.0463 147.9151,85.0463 L140.0291,85.0463 C138.0371,85.0463 136.1931,86.0423 134.4881,88.0303 C132.7831,90.0213 131.9301,92.6493 131.9301,95.9173 L131.9301,157.5133 C131.9301,160.7843 132.7831,163.3753 134.4881,165.2933 C136.1931,167.2113 138.0371,168.1713 140.0291,168.1713 L147.9151,168.1713 C149.7601,168.1713 151.5721,167.2113 153.3501,165.2933 C155.1251,163.3753 156.0141,160.7843 156.0141,157.5133 L156.0141,95.9173 C156.0141,92.6493 155.1251,90.0213 153.3501,88.0303 L153.3501,88.0303 Z M140.0291,200.1413 C134.6271,200.1413 129.5851,199.0063 124.8961,196.7313 C120.2071,194.4603 116.0841,191.4023 112.5351,187.5663 C108.9811,183.7303 106.2101,179.2203 104.2221,174.0323 C102.2301,168.8463 101.2381,163.3423 101.2381,157.5133 L101.2381,95.9173 C101.2381,90.0923 102.2301,84.5873 104.2221,79.3983 C106.2101,74.2133 108.9811,69.7003 112.5351,65.8633 C116.0841,62.0273 120.2071,58.9733 124.8961,56.6983 C129.5851,54.4273 134.6271,53.2893 140.0291,53.2893 L147.9151,53.2893 C153.3141,53.2893 158.3591,54.4273 163.0481,56.6983 C167.7371,58.9733 171.8201,62.0273 175.3031,65.8633 C178.7841,69.7003 181.5181,74.2133 183.5091,79.3983 C185.4971,84.5873 186.4931,90.0923 186.4931,95.9173 L186.4931,157.5133 C186.4931,163.3423 185.4971,168.8463 183.5091,174.0323 C181.5181,179.2203 178.7841,183.7303 175.3031,187.5663 C171.8201,191.4023 167.7371,194.4603 163.0481,196.7313 C158.3591,199.0063 153.3141,200.1413 147.9151,200.1413 L140.0291,200.1413 Z" id="Fill-3" fill="#03A8D5" sketch:type="MSShapeGroup"></path>
                <g id="Group-7">
                    <mask id="mask-2" sketch:name="Clip 6" fill="white">
                        <use xlink:href="#path-1"></use>
                    </mask>
                    <g id="Clip-6"></g>
                    <path d="M254.8032,86.5381 C253.1682,84.4071 251.2862,83.3421 249.1552,83.3421 L241.2692,83.3421 C239.1382,83.3421 237.2532,84.4071 235.6202,86.5381 C233.9862,88.6701 233.1702,91.2271 233.1702,94.2111 L233.1702,156.8741 C233.1702,160.0021 233.9862,162.5961 235.6202,164.6541 C237.2532,166.7151 239.1382,167.7441 241.2692,167.7441 L249.1552,167.7441 C251.2862,167.7441 253.1682,166.7151 254.8032,164.6541 C256.4352,162.5961 257.2542,160.0021 257.2542,156.8741 L257.2542,94.2111 C257.2542,91.2271 256.4352,88.6701 254.8032,86.5381 L254.8032,86.5381 Z M241.2692,200.3541 C235.7282,200.3541 230.5752,199.1491 225.8172,196.7311 C221.0542,194.3171 216.9352,191.0831 213.4542,187.0341 C209.9712,182.9841 207.2742,178.3311 205.3552,173.0721 C203.4372,167.8171 202.4782,162.4161 202.4782,156.8741 L202.4782,0.6431 L232.9562,0.6431 L232.9562,52.0101 C235.6552,51.1571 238.4252,50.7311 241.2692,50.7311 L249.1552,50.7311 C254.6972,50.7311 259.8452,51.9761 264.6082,54.4611 C269.3662,56.9481 273.4522,60.2161 276.8632,64.2661 C280.2732,68.3151 282.9372,72.9341 284.8562,78.1191 C286.7742,83.3081 287.7332,88.6701 287.7332,94.2111 L287.7332,156.8741 C287.7332,162.4161 286.7742,167.8171 284.8562,173.0721 C282.9372,178.3311 280.2732,182.9841 276.8632,187.0341 C273.4522,191.0831 269.3662,194.3171 264.6082,196.7311 C259.8452,199.1491 254.6972,200.3541 249.1552,200.3541 L241.2692,200.3541 Z" id="Fill-5" fill="#03A8D5" sketch:type="MSShapeGroup" mask="url(#mask-2)"></path>
                </g>
                <path d="M325.2456,253 L325.2456,220.603 L350.3946,220.603 C352.5266,220.603 354.4086,219.57 356.0436,217.513 C357.6756,215.451 358.4946,212.856 358.4946,209.733 L358.4946,201.847 C355.3676,202.556 352.6666,202.912 350.3946,202.912 L342.5096,202.912 C336.8246,202.912 331.6026,201.703 326.8436,199.289 C322.0816,196.875 317.9976,193.678 314.5886,189.698 C311.1786,185.721 308.5146,181.103 306.5966,175.844 C304.6776,170.589 303.7186,165.187 303.7186,159.646 L303.7186,53.502 L334.4096,53.502 L334.4096,159.646 C334.4096,162.771 335.1886,165.366 336.7546,167.425 C338.3166,169.486 340.2346,170.515 342.5096,170.515 L350.3946,170.515 C352.5266,170.515 354.4086,169.449 356.0436,167.318 C357.6756,165.187 358.4946,162.629 358.4946,159.646 L358.4946,52.84 L388.9736,52.84 L388.9736,209.733 C388.9736,215.274 388.0146,220.673 386.0966,225.932 C384.1776,231.187 381.5136,235.806 378.1036,239.786 C374.6926,243.762 370.6066,246.959 365.8476,249.377 C361.0856,251.791 355.9366,253 350.3946,253 L325.2456,253 Z" id="Fill-8" fill="#03A8D5" sketch:type="MSShapeGroup"></path>
                <path d="M434.7974,156.874 C434.7974,160.145 435.5434,162.771 437.0354,164.761 C438.5274,166.752 440.2664,167.744 442.2574,167.744 L450.3574,167.744 L450.3574,200.354 L442.2574,200.354 C436.7154,200.354 431.6704,199.149 427.1244,196.731 C422.5754,194.317 418.6694,191.083 415.4014,187.034 C412.1324,182.984 409.6104,178.368 407.8354,173.18 C406.0574,167.994 405.1714,162.559 405.1714,156.874 L405.1714,0.644 L434.7974,0.644 L434.7974,156.874 Z" id="Fill-10" fill="#03A8D5" sketch:type="MSShapeGroup"></path>
                <path d="M508.4351,88.0303 C506.6561,86.0423 504.8441,85.0463 502.9991,85.0463 L495.1131,85.0463 C493.1221,85.0463 491.2771,86.0423 489.5721,88.0303 C487.8681,90.0213 487.0141,92.6493 487.0141,95.9173 L487.0141,157.5133 C487.0141,160.7843 487.8681,163.3753 489.5721,165.2933 C491.2771,167.2113 493.1221,168.1713 495.1131,168.1713 L502.9991,168.1713 C504.8441,168.1713 506.6561,167.2113 508.4351,165.2933 C510.2091,163.3753 511.0991,160.7843 511.0991,157.5133 L511.0991,95.9173 C511.0991,92.6493 510.2091,90.0213 508.4351,88.0303 L508.4351,88.0303 Z M495.1131,200.1413 C489.7121,200.1413 484.6691,199.0063 479.9811,196.7313 C475.2911,194.4603 471.1691,191.4023 467.6191,187.5663 C464.0651,183.7303 461.2941,179.2203 459.3071,174.0323 C457.3151,168.8463 456.3221,163.3423 456.3221,157.5133 L456.3221,95.9173 C456.3221,90.0923 457.3151,84.5873 459.3071,79.3983 C461.2941,74.2133 464.0651,69.7003 467.6191,65.8633 C471.1691,62.0273 475.2911,58.9733 479.9811,56.6983 C484.6691,54.4273 489.7121,53.2893 495.1131,53.2893 L502.9991,53.2893 C508.3981,53.2893 513.4431,54.4273 518.1321,56.6983 C522.8221,58.9733 526.9051,62.0273 530.3881,65.8633 C533.8681,69.7003 536.6011,74.2133 538.5941,79.3983 C540.5821,84.5873 541.5781,90.0923 541.5781,95.9173 L541.5781,157.5133 C541.5781,163.3423 540.5821,168.8463 538.5941,174.0323 C536.6011,179.2203 533.8681,183.7303 530.3881,187.5663 C526.9051,191.4023 522.8221,194.4603 518.1321,196.7313 C513.4431,199.0063 508.3981,200.1413 502.9991,200.1413 L495.1131,200.1413 Z" id="Fill-12" fill="#03A8D5" sketch:type="MSShapeGroup"></path>
                <g id="Group-16">
                    <mask id="mask-4" sketch:name="Clip 15" fill="white">
                        <use xlink:href="#path-3"></use>
                    </mask>
                    <g id="Clip-15"></g>
                    <path d="M612.3394,96.1299 C612.3394,93.2889 611.5204,90.8009 609.8884,88.6699 C608.2524,86.5379 606.3714,85.4729 604.2394,85.4729 L596.3534,85.4729 C594.2224,85.4729 592.3374,86.5379 590.7054,88.6699 C589.0694,90.8009 588.2544,93.2889 588.2544,96.1299 L588.2544,200.3549 L557.5624,200.3549 L557.5624,96.1299 C557.5624,90.5879 558.5224,85.2599 560.4404,80.1449 C562.3584,75.0279 565.0234,70.5199 568.4324,66.6099 C571.8434,62.7029 575.9264,59.5429 580.6884,57.1249 C585.4464,54.7109 590.6694,53.5019 596.3534,53.5019 L604.2394,53.5019 C609.7804,53.5019 614.9304,54.7109 619.6934,57.1249 C624.4504,59.5429 628.5374,62.7029 631.9474,66.6099 C635.3584,70.5199 638.0234,75.0279 639.9404,80.1449 C641.8594,85.2599 642.8174,90.5879 642.8174,96.1299 L642.8174,200.3549 L612.3394,200.3549 L612.3394,96.1299 Z" id="Fill-14" fill="#03A8D5" sketch:type="MSShapeGroup" mask="url(#mask-4)"></path>
                </g>
            </g>
        </g>
    </g>
</svg>