<svg id="Layer_1" data-name="Layer 1" xmlns="http://www.w3.org/2000/svg" viewBox="0 0 98.02 98.06"><defs><style>.cls-1{fill:#6723e8;}</style></defs><title>statbot-logo-svg-color-symbol</title><path class="cls-1" d="M16.78,22.14A3.33,3.33,0,0,0,11.09,24a11.58,11.58,0,0,0,0,1.69v7a3.23,3.23,0,0,1-.95,2.24l-7.47,7.6a9,9,0,0,0-.09,12.71l7.55,7.6a3.22,3.22,0,0,1,1,2.25v7.56A11.54,11.54,0,0,0,11,73.89a3.38,3.38,0,0,0,5.77,2l20.7-20.67a8.78,8.78,0,0,0,0-12.42h0Z"/><path class="cls-1" d="M81.22,22.14A3.4,3.4,0,0,1,87,24a11.49,11.49,0,0,1,.09,1.69v7a3.14,3.14,0,0,0,.85,2.24l7.42,7.6a9,9,0,0,1,.07,12.71L88,62.81a3.15,3.15,0,0,0-.87,2.25v7.56a11.35,11.35,0,0,1,0,1.27,3.42,3.42,0,0,1-5.82,2L60.55,55.22a8.78,8.78,0,0,1,0-12.42h0Z"/><path class="cls-1" d="M22.12,81.24A3.32,3.32,0,0,0,24,86.92a11.59,11.59,0,0,0,1.69,0h7a3.23,3.23,0,0,1,2.24,1l7.6,7.47a9,9,0,0,0,12.71.1l7.6-7.56a3.23,3.23,0,0,1,2.25-1H72.6a11.57,11.57,0,0,0,1.27.06,3.38,3.38,0,0,0,2-5.77L55.2,60.55a8.78,8.78,0,0,0-12.42,0h0Z"/><path class="cls-1" d="M22.12,16.8A3.4,3.4,0,0,1,24,11a11.48,11.48,0,0,1,1.69-.1h7A3.13,3.13,0,0,0,34.93,10l7.6-7.42a9,9,0,0,1,12.66,0l7.6,7.47a3.14,3.14,0,0,0,2.25.87H72.6a11.34,11.34,0,0,1,1.27,0,3.42,3.42,0,0,1,2,5.82L55.2,37.47a8.78,8.78,0,0,1-12.42,0h0Z"/></svg>