<svg id="Layer_1" data-name="Layer 1" xmlns="http://www.w3.org/2000/svg" viewBox="0 0 386.94 98.03"><defs><style>.cls-1{fill:#fff;}</style></defs><title>statbot-logo-svg-white</title><path class="cls-1" d="M143.37,31.76a11.14,11.14,0,0,0-6.08,1.51,5.05,5.05,0,0,0-2.38,4.57,5.32,5.32,0,0,0,2.38,4.68q2.38,1.62,10.12,3.49t11.66,5.26q3.92,3.39,3.92,10a13.21,13.21,0,0,1-5,10.69Q153,76,145,76a30.61,30.61,0,0,1-21-8.14l5.33-6.41q7.63,6.63,15.84,6.62a10.81,10.81,0,0,0,6.52-1.76,5.52,5.52,0,0,0,2.41-4.68,5.26,5.26,0,0,0-2.27-4.54q-2.27-1.62-7.81-3a70.12,70.12,0,0,1-8.42-2.45,19,19,0,0,1-5.11-2.92q-4.47-3.38-4.46-10.37t5.08-10.76a20.44,20.44,0,0,1,12.56-3.78,30.15,30.15,0,0,1,9.58,1.58A25.06,25.06,0,0,1,161.47,30l-4.54,6.41a17.17,17.17,0,0,0-6-3.31A23.3,23.3,0,0,0,143.37,31.76Z"/><path class="cls-1" d="M180.42,43.65V63.08a6.31,6.31,0,0,0,1.44,4.36,5.12,5.12,0,0,0,4,1.62,6.86,6.86,0,0,0,5-2.52l3.31,5.69a13.74,13.74,0,0,1-9.4,3.82A12.09,12.09,0,0,1,176,72.48q-3.64-3.56-3.64-9.61V43.65h-4.82V37.16h4.82v-12h8.06v12H190.5v6.48H180.42Z"/><path class="cls-1" d="M231.61,75.47h-7.34V70.36A15.76,15.76,0,0,1,211.52,76a14.61,14.61,0,0,1-9.9-3.38,11.33,11.33,0,0,1-3.92-9q0-5.65,4.18-8.46t11.3-2.81h10.44V50.92q0-7.63-8.5-7.63-5.33,0-11.09,3.89l-3.6-5a24.79,24.79,0,0,1,15.84-5.54q6.77,0,11.05,3.42t4.28,10.76v24.7Zm-8.06-14.26V58h-9.07q-8.71,0-8.71,5.47a4.87,4.87,0,0,0,2.16,4.28,10.55,10.55,0,0,0,6,1.48A10.91,10.91,0,0,0,220.66,67,6.92,6.92,0,0,0,223.54,61.21Z"/><path class="cls-1" d="M250.34,43.65V63.08a6.31,6.31,0,0,0,1.44,4.36,5.12,5.12,0,0,0,4,1.62,6.86,6.86,0,0,0,5-2.52l3.31,5.69A13.74,13.74,0,0,1,254.7,76a12.09,12.09,0,0,1-8.78-3.56q-3.64-3.56-3.64-9.61V43.65h-4.82V37.16h4.82v-12h8.06v12h10.08v6.48H250.34Z"/><path class="cls-1" d="M291,36.59a18.21,18.21,0,0,1,13.18,5.33q5.47,5.33,5.47,14.18t-5.44,14.4A17.21,17.21,0,0,1,291.56,76q-7.23,0-13-6.34v5.76H270.5V22h8.06V43.86Q283.32,36.59,291,36.59Zm-12.6,19.8a12.49,12.49,0,0,0,3.31,9,10.69,10.69,0,0,0,8.06,3.49,11.45,11.45,0,0,0,8.28-3.46,12,12,0,0,0,3.53-9,12.75,12.75,0,0,0-3.46-9.14,11,11,0,0,0-8.28-3.64,10.58,10.58,0,0,0-8.14,3.64A13,13,0,0,0,278.42,56.39Z"/><path class="cls-1" d="M349.93,70.32a21,21,0,0,1-28.8,0,19,19,0,0,1-5.76-14,19,19,0,0,1,5.76-14,21,21,0,0,1,28.8,0,19,19,0,0,1,5.76,14A19,19,0,0,1,349.93,70.32Zm-23.08-5a12.52,12.52,0,0,0,17.35,0,12.36,12.36,0,0,0,3.42-9,12.37,12.37,0,0,0-3.42-9,12.52,12.52,0,0,0-17.35,0,12.37,12.37,0,0,0-3.42,9A12.36,12.36,0,0,0,326.85,65.35Z"/><path class="cls-1" d="M373.19,43.65V63.08a6.31,6.31,0,0,0,1.44,4.36,5.12,5.12,0,0,0,4,1.62,6.86,6.86,0,0,0,5-2.52l3.31,5.69a13.74,13.74,0,0,1-9.4,3.82,12.09,12.09,0,0,1-8.78-3.56q-3.64-3.56-3.64-9.61V43.65H360.3V37.16h4.82v-12h8.06v12h10.08v6.48H373.19Z"/><path class="cls-1" d="M16.78,22.15A3.33,3.33,0,0,0,11.09,24a11.58,11.58,0,0,0,0,1.69v7a3.23,3.23,0,0,1-.95,2.24l-7.47,7.6a9,9,0,0,0-.09,12.71l7.55,7.6a3.22,3.22,0,0,1,1,2.25v7.56A11.54,11.54,0,0,0,11,73.9a3.38,3.38,0,0,0,5.77,2L37.47,55.23a8.78,8.78,0,0,0,0-12.42Z"/><path class="cls-1" d="M81.22,22.15A3.4,3.4,0,0,1,87,24a11.49,11.49,0,0,1,.09,1.69v7a3.14,3.14,0,0,0,.85,2.24l7.42,7.6a9,9,0,0,1,.07,12.71L88,62.82a3.15,3.15,0,0,0-.87,2.25v7.56a11.35,11.35,0,0,1,0,1.27,3.42,3.42,0,0,1-5.82,2L60.55,55.23a8.78,8.78,0,0,1,0-12.42Z"/><path class="cls-1" d="M22.12,81.25A3.32,3.32,0,0,0,24,86.93a11.59,11.59,0,0,0,1.69,0h7a3.23,3.23,0,0,1,2.24,1l7.6,7.47a9,9,0,0,0,12.71.1l7.6-7.56a3.23,3.23,0,0,1,2.25-1H72.6a11.57,11.57,0,0,0,1.27.06,3.38,3.38,0,0,0,2-5.77L55.2,60.56a8.78,8.78,0,0,0-12.42,0Z"/><path class="cls-1" d="M22.12,16.81A3.4,3.4,0,0,1,24,11a11.48,11.48,0,0,1,1.69-.1h7a3.13,3.13,0,0,0,2.24-.85l7.6-7.42A9,9,0,0,1,55.19,2.6l7.6,7.47a3.14,3.14,0,0,0,2.25.87H72.6a11.34,11.34,0,0,1,1.27,0,3.42,3.42,0,0,1,2,5.82L55.2,37.48a8.78,8.78,0,0,1-12.42,0Z"/></svg>